<svg height="511pt" viewBox="0 0 511.99979 511" fill="#DB686F" width="511pt" xmlns="http://www.w3.org/2000/svg"><path d="m80.949219 222.089844-20.101563-3.898438c-1.199218 1.199219-2.699218 2.699219-3.898437 3.898438-14.703125 14.699218-26.703125 29.699218-35.703125 44.703125l70.203125 12.898437zm0 0"/><path d="m97.148438 311.191406-89.101563-16.199218c-6.601563 17.398437-9.300781 35.101562-7.5 52.800781l106.800781 19.5zm0 0"/><path d="m7.144531 379.59375c8.101563 25.5 24.902344 50.703125 49.800781 75.902344 24.902344 24.902344 50.101563 41.402344 75.601563 49.800781l-19.199219-106.503906zm0 0"/><path d="m163.449219 206.789062-9-49.203124c-16.800781 6.304687-33.601563 15.003906-49.800781 25.800781l2.398437 13.203125zm0 0"/><path d="m251.953125 223.289062-15.300781-81.902343c-17.101563-.300781-35.101563 1.800781-53.402344 6.601562l11.699219 64.800781zm0 0"/><path d="m123.246094 285.390625 56.402344 10.199219-10.5-57.300782-56.398438-10.5zm0 0"/><path d="m367.453125 244.589844c-5.398437-25.199219-17.097656-47.402344-34.796875-65.101563-17.703125-17.699219-39.902344-29.101562-64.804688-34.199219l15.601563 83.699219zm0 0"/><path d="m185.347656 327.09375-56.398437-10.203125 10.199219 56.101563 56.402343 10.203124zm0 0"/><path d="m268.453125 312.09375-10.5-57.304688-57.304687-10.5 10.5 57.003907v.296875zm0 0"/><path d="m289.453125 260.789062 10.5 57.003907 64.800781 11.699219c1.199219-6 2.699219-12.300782 3.601563-18.300782 2.097656-12.300781 3-24 2.699219-35.402344zm0 0"/><path d="m316.152344 405.09375 13.203125 2.402344c10.5-15.902344 19.199219-32.402344 25.800781-49.503906l-49.203125-9zm0 0"/><path d="m274.453125 343.292969-57.601563-10.5 10.199219 56.101562 57.902344 10.5zm0 0"/><path d="m232.75 420.394531 12.902344 70.800781c15-9 30-21 44.699218-35.699218 1.503907-1.5 2.703126-2.699219 4.203126-4.199219l-3.902344-20.402344zm0 0"/><path d="m144.847656 404.492188 19.800782 107.40625c3 .601562 6 .601562 9 .601562 14.703124 0 29.402343-2.703125 44.101562-8.101562l-16.5-89.703126zm0 0"/><path d="m506.257812 149.1875c5.402344-4.199219 7.203126-11.699219 4.503907-18-3.003907-6.300781-9.902344-9.601562-16.800781-8.402344-.300782.300782-26.003907 4.800782-56.003907 9.902344-11.101562 1.5-22.800781 3.300781-34.800781 5.101562-.300781 2.097657-.601562 4.199219-.902344 6.296876l-11.394531 73.203124c.597656.601563.597656 1.5.898437 2.101563 14.101563-6.304687 28.5-14.402344 42.300782-22.503906 37.199218-21.898438 70.101562-45.898438 72.199218-47.699219zm0 0"/><path d="m265.453125 108.386719c6.898437-15.300781 15.300781-30.601563 24.597656-45.601563 4.503907-7.5 8.703125-14.703125 13.203125-21.601562-2.699218-14.097656-3.300781-26-3.300781-26.300782-.300781-7.199218-5.699219-13.199218-12.902344-14.097656-6.898437-1.203125-13.800781 2.996094-16.199219 9.597656-1.199218 3-17.699218 53.601563-18.601562 101.902344 3.601562.300782 7.203125.601563 10.800781 1.199219zm0 0"/><path d="m380.65625 1.683594c-6-2.699219-13.5-.601563-17.703125 4.5-1.800781 2.398437-25.5 35.300781-47.398437 72.5-8.402344 13.5-16.203126 27.902344-22.800782 42.304687 7.800782 2.398438 15.300782 5.398438 22.5 9.296875 10.199219 5.101563 19.5 11.402344 28.199219 18.601563 3.601563 3 7.199219 6.300781 10.5 9.601562 4.800781 4.796875 9.300781 9.898438 13.5 15.296875 1.5-9.597656 3-20.097656 4.800781-31.199218v-.898438c3.601563-23.101562 7.203125-48.003906 10.199219-69.304688 4.503906-30 7.5-54.5 7.5-54.800781.902344-6.898437-2.996094-13.199219-9.296875-15.898437zm0 0"/><path d="m497.558594 212.488281c-.300782 0-12.199219-.601562-26-3.300781-6.898438 4.5-14.398438 9.003906-22.203125 13.5-13.496094 8.101562-29.398438 17.101562-45.300781 24.003906l-5.097657 2.398438c.601563 3.898437 1.199219 8.101562 1.5 12.300781 48.300781-1.199219 98.605469-18.601563 101.601563-19.800781 6.902344-2.398438 10.800781-9.300782 9.601562-16.5-.898437-6.898438-6.898437-12.300782-14.101562-12.601563zm0 0"/><path d="m433.757812 102.984375c11.101563-1.800781 21-3.597656 29.398438-5.398437 25.800781-37.5 45.804688-72.703126 47.003906-74.804688 2.996094-6 2.097656-13.199219-2.703125-17.699219-4.5-4.800781-11.699219-6-17.699219-2.699219-2.097656 1.199219-36.5 20.5-73.703124 45.699219 0 1.800781-.296876 3.300781-.597657 5.101563-1.5 11.101562-3 21.300781-3.300781 23.699218-1.5 9.300782-2.699219 19.503907-4.5 30 3.601562-.597656 7.199219-.898437 10.800781-1.5zm0 0"/></svg>